<?xml version="1.0" encoding="UTF-8" standalone="no"?>
<!-- Created with Inkscape (http://www.inkscape.org/) -->

<svg
   xmlns:dc="http://purl.org/dc/elements/1.1/"
   xmlns:cc="http://creativecommons.org/ns#"
   xmlns:rdf="http://www.w3.org/1999/02/22-rdf-syntax-ns#"
   xmlns:svg="http://www.w3.org/2000/svg"
   xmlns="http://www.w3.org/2000/svg"
   xmlns:sodipodi="http://sodipodi.sourceforge.net/DTD/sodipodi-0.dtd"
   xmlns:inkscape="http://www.inkscape.org/namespaces/inkscape"
   version="1.1"
   id="svg815"
   width="520"
   height="520"
   viewBox="0 0 520 520"
   sodipodi:docname="logo_face_green_light.svg"
   inkscape:version="0.92.3 (2405546, 2018-03-11)"
   inkscape:export-filename="C:\Users\anshs\Downloads\logo\logo_face_green_light\logo_face_green_light_512px.png"
   inkscape:export-xdpi="25.389999"
   inkscape:export-ydpi="25.389999">
  <metadata
     id="metadata821">
    <rdf:RDF>
      <cc:Work
         rdf:about="">
        <dc:format>image/svg+xml</dc:format>
        <dc:type
           rdf:resource="http://purl.org/dc/dcmitype/StillImage" />
        <dc:title></dc:title>
      </cc:Work>
    </rdf:RDF>
  </metadata>
  <defs
     id="defs819" />
  <sodipodi:namedview
     pagecolor="#ffffff"
     bordercolor="#666666"
     borderopacity="1"
     objecttolerance="10"
     gridtolerance="10"
     guidetolerance="10"
     inkscape:pageopacity="0"
     inkscape:pageshadow="2"
     inkscape:window-width="1366"
     inkscape:window-height="713"
     id="namedview817"
     showgrid="false"
     inkscape:pagecheckerboard="true"
     inkscape:zoom="0.64"
     inkscape:cx="115.95679"
     inkscape:cy="307.96412"
     inkscape:window-x="-8"
     inkscape:window-y="-8"
     inkscape:window-maximized="1"
     inkscape:current-layer="g1078"
     fit-margin-top="4"
     fit-margin-left="4"
     fit-margin-right="4"
     fit-margin-bottom="4" />
  <g
     id="g1078"
     transform="matrix(1.0890197,0,0,1.0890197,-30.503293,-17.393049)"
     style="stroke-width:0.918257">
    <circle
       r="235.07379"
       cy="276.23975"
       cx="279.66968"
       id="path1054"
       style="opacity:1;fill:#ffffff;fill-opacity:1;stroke:none;stroke-width:3.47057796;stroke-miterlimit:4;stroke-dasharray:3.47057777, 3.47057777;stroke-dashoffset:0;stroke-opacity:1" />
    <g
       style="stroke-width:0.62208873"
       transform="matrix(1.4814771,0,0,1.4707164,186.40088,112.55174)"
       id="g1052">
      <g
         id="g1107">
        <path
           id="path1040-3"
           d="m -34.108091,182.41459 c -0.399726,-6.03666 -0.768935,-6.55501 -5.968014,-8.38074 -3.047963,-1.07034 -6.321142,-3.07419 -7.273631,-4.45297 -2.12663,-3.07853 -2.210138,-13.09051 -0.238281,-28.58331 1.932477,-15.18347 0.825307,-21.2315 -4.982451,-27.21734 l -4.638824,-4.78085 3.151754,-1.56932 c 1.733483,-0.86312 4.271077,-4.14699 5.63928,-7.29749 2.230513,-5.136903 2.324619,-7.173988 0.912013,-19.735694 -3.035263,-26.990552 -1.64093,-33.004088 8.156315,-35.177923 4.48469,-0.995081 4.845037,-1.507036 5.241839,-7.44891 0.421013,-6.307048 0.373229,-6.380294 -4.156413,-6.371942 -11.90012,0.02191 -23.094988,7.595525 -26.142311,17.685863 -1.57807,5.225027 -1.423022,11.58889 0.899953,36.939185 1.043306,11.385092 -0.464504,15.992431 -5.703601,17.429401 -2.805569,0.76948 -3.423567,1.873 -3.423567,6.11149 0,4.0898 0.707262,5.46634 3.379255,6.57654 5.586013,2.32086 6.827583,6.74051 5.509631,19.61148 -0.645499,6.30367 -1.195065,16.91176 -1.221287,23.5735 -0.0402,10.30805 0.432983,12.84865 3.178799,17.05574 4.886882,7.48753 11.616064,10.62649 26.29407,12.26565 1.295018,0.14459 1.689993,-1.63198 1.385471,-6.23236 z"
           style="fill:#22df97;fill-opacity:1;stroke-width:0.62208867"
           inkscape:connector-curvature="0" />
        <path
           id="path1038-7"
           d="m 179.52688,182.49331 c 10.73712,-6.87167 12.99952,-15.89387 9.99258,-39.84637 -2.45198,-19.52978 -1.62695,-24.7917 4.27117,-27.24228 2.78812,-1.15843 3.48844,-2.48788 3.48844,-6.62188 0,-4.18104 -0.63025,-5.34533 -3.28817,-6.07436 -6.0189,-1.65084 -7.02009,-7.801091 -4.44065,-27.278782 1.83627,-13.866403 1.97432,-18.664724 0.69694,-24.208864 -2.72608,-11.83142 -11.89473,-19.098347 -24.09618,-19.098347 -5.95339,0 -6.27911,0.219852 -6.27911,4.239293 0,5.048244 2.24139,7.872976 6.24686,7.872976 7.7681,0 10.37495,7.687366 8.69803,25.650081 -2.41955,25.919662 -1.55341,31.292593 5.83745,36.204353 l 3.98007,2.64505 -4.69857,4.09705 c -5.93366,5.17391 -7.48094,11.26625 -6.03435,23.75958 0.62677,5.41267 1.21279,14.52884 1.30242,20.25814 0.18657,11.92548 -1.93988,15.64154 -9.96938,17.42183 -4.22302,0.93632 -4.7121,1.59469 -5.11191,6.88189 l -0.44212,5.84653 7.77285,-0.87669 c 4.27492,-0.48218 9.70807,-2.11531 12.07363,-3.6292 z"
           style="fill:#22df97;fill-opacity:1;stroke-width:0.62208867"
           inkscape:connector-curvature="0" />
        <g
           style="stroke-width:0.69375938"
           id="g926"
           transform="matrix(0.91365791,0,0,0.88004166,1995.5409,544.38598)">
          <path
             inkscape:connector-curvature="0"
             style="fill:#000000;fill-opacity:1;stroke-width:0.69375938"
             d="m -2137.3845,-383.31879 c -20.6575,-4.70338 -32.3774,-12.24331 -42.7828,-27.52393 -11.2317,-16.49423 -17.9806,-41.28643 -15.4014,-56.57776 1.7711,-10.50025 2.4769,-10.60155 5.0674,-0.72733 4.3059,16.41229 9.683,24.84993 18.433,28.92432 7.6907,3.58115 15.0389,3.23555 28.8393,-1.35638 9.9507,-3.31096 12.3719,-3.73861 21.2315,-3.75 9.0104,-0.0116 11.0558,0.35825 20.6683,3.73715 16.7884,5.90132 27.2731,4.86374 35.7798,-3.5408 5.4301,-5.36496 8.5783,-11.59939 11.0205,-21.82438 1.0677,-4.47039 2.1806,-8.36737 2.4732,-8.65994 0.2926,-0.29258 1.3065,1.22463 2.2532,3.37158 4.2211,9.57281 0.9348,30.01865 -7.7685,48.33192 -13.1298,27.62765 -31.1558,39.54891 -61.4265,40.62371 -8.3001,0.2947 -13.9692,-0.0223 -18.387,-1.02816 z"
             id="path1022-0" />
          <path
             inkscape:connector-curvature="0"
             style="fill:#ffffff;fill-opacity:1;stroke-width:0.69375938"
             d="m -2102.8983,-425.73315 c -2.7567,-3.04611 -12.712,-7.87628 -17.7742,-8.62381 -7.3128,-1.07988 -16.9026,3.05379 -19.8467,8.55489 -1.0253,1.91573 -0.5991,1.95935 19.1415,1.95935 19.7368,0 20.1518,-0.0425 18.4794,-1.89043 z"
             id="path1020-2" />
          <path
             sodipodi:nodetypes="cccscccccscccscscccccccccccscsccccccccccccccccc"
             inkscape:connector-curvature="0"
             style="fill:#000000;fill-opacity:1;stroke-width:0.69375938"
             d="m -2167.7481,-461.25578 c -8.0783,-2.17335 -11.5204,-6.93723 -14.3646,-19.88083 -1.5005,-6.82904 -1.8673,-7.47883 -4.8254,-8.54847 -1.7607,-0.6367 -3.4854,-1.15764 -3.8326,-1.15764 -0.3472,0 -0.7653,2.8125 -0.929,6.25 l -0.2978,6.25 -2.8835,-8.5 c -1.5859,-4.675 -3.3024,-9.03107 -3.8144,-9.68016 -1.2298,-1.55885 -4.9811,-0.78041 -6.5521,1.35961 -1.0451,1.42381 -1.25,0.60831 -1.25,-4.97716 0,-3.77556 -0.9376,-10.05448 -2.1564,-14.44113 -5.0171,-18.05616 -1.3417,-39.08411 9.7585,-55.83252 12.1432,-18.32207 32.0529,-33.4555 54.1238,-41.13968 7.7435,-2.696 7.8883,-7.40183 36.7741,-7.44808 28.861,-0.0462 29.0371,4.6357 36.728,1.9527 6.868,-2.39584 8.3704,-2.59067 13.5,-1.75052 3.1746,0.51995 6.222,0.96579 6.772,0.99075 0.55,0.025 -2.1133,1.26507 -5.9184,2.7558 -3.8052,1.49072 -7.0837,3.20829 -7.2855,3.81683 -0.2242,0.67598 1.7369,1.32358 5.0409,1.66458 6.3444,0.65481 12.1826,3.40244 16.5861,7.80591 3.3504,3.35037 7.5837,10.7497 6.6718,11.66157 -0.2996,0.29958 -3.3049,-0.65237 -6.6784,-2.11543 l -6.1337,-2.66011 3.959,4.76852 c 4.9863,6.00579 11.3831,15.49703 14.1452,20.98803 7.4398,14.78975 6.653,32.69564 -2.3493,53.46913 -2.8167,6.49981 -3.5377,9.45231 -3.5377,14.48744 0,6.38899 -0.7286,7.56069 -3,4.82392 -1.8814,-2.26694 -2.6615,-1.87747 -5.3839,2.68783 l -2.4973,4.18783 -0.7336,-5.43783 -0.7335,-5.43783 -3.6276,7.71839 c -4.3411,9.23678 -5.5084,10.58427 -4.7139,5.44169 0.5824,-3.76949 0.5531,-3.81323 -1.5978,-2.3851 -1.5455,1.02616 -2.6549,3.49793 -3.7652,8.38902 -2.5568,11.26232 -5.446,16.22465 -10.8453,18.62736 -5.7867,2.57507 -17.6371,3.36212 -25.6321,1.70236 -8.1873,-1.69966 -11.4274,-5.25244 -14.5055,-15.90509 l -2.3373,-8.08863 h -6.6543 -6.6544 l -1.2759,5.75 c -2.4149,10.88296 -5.9363,15.5471 -13.4151,17.76807 -6.0178,1.78706 -17.3696,1.81981 -23.8779,0.0689 z"
             id="path1018-3" />
          <path
             inkscape:connector-curvature="0"
             style="fill:#ffffff;fill-opacity:1;stroke-width:0.69375938"
             d="m -2149.3839,-467.83931 c 6.9428,-1.28455 9.253,-3.92297 11.2947,-12.89994 2.7765,-12.20737 4.5706,-11.10347 -18.0459,-11.10347 h -19.6377 l 0.619,5.2672 c 0.8055,6.85324 3.3088,14.10827 5.5758,16.15995 3.2702,2.95945 12.0612,4.08097 20.1941,2.57626 z"
             id="path1016-3" />
          <path
             inkscape:connector-curvature="0"
             style="fill:#fdfdfd;fill-opacity:1;stroke-width:0.69375938"
             d="m -2076.9034,-469.31756 c 3.3441,-1.39726 5.528,-6.12254 6.9442,-15.02516 0.35,-2.2 0.8524,-4.7875 1.1164,-5.75 0.4457,-1.62472 -0.9647,-1.75 -19.7008,-1.75 h -20.181 l 0.6824,4.55015 c 0.9228,6.15368 3.1901,13.58255 4.8297,15.82493 3.1324,4.28375 18.2463,5.51892 26.3091,2.15008 z"
             id="path1014-5" />
          <path
             inkscape:connector-curvature="0"
             style="fill:#ffffff;fill-opacity:1;stroke-width:0.69375938"
             d="m -2116.4975,-495.30754 c 0,-3.68615 2.7249,-4.53248 14.6843,-4.56075 l 10.8157,-0.0256 -7.5,-2.54901 c -18.008,-6.12036 -35.926,-16.62401 -53.3515,-31.27503 -7.9181,-6.65736 -10.2738,-8.12482 -13.0429,-8.12482 -5.0356,0 -12.5114,5.42526 -15.8468,11.5 -3.0062,5.47532 -8.1531,20.61487 -9.2139,27.10259 -0.639,3.90803 -0.5212,4.16456 2.4845,5.40957 2.6523,1.09863 3.294,1.08227 4.0252,-0.10258 0.7,-1.13427 5.5159,-1.46986 24.6576,-1.71822 28.476,-0.36947 30.1438,-0.16142 30.9482,3.86059 0.5651,2.82529 0.8135,2.94805 5.9646,2.94805 5.0462,0 5.375,-0.15077 5.375,-2.46482 z"
             id="path1012-1" />
          <path
             inkscape:connector-curvature="0"
             style="fill:#ffffff;fill-opacity:1;stroke-width:0.69375938"
             d="m -2056.644,-499.49656 c 0.1944,-0.12088 -3.2696,-2.04142 -7.6977,-4.26787 -4.4282,-2.22644 -12.6245,-7.76738 -18.2141,-12.31319 -5.5895,-4.5458 -11.3187,-9.1489 -12.7315,-10.2291 -2.0875,-1.59605 -1.1768,0.69714 4.8606,12.23993 l 7.4292,14.20394 9.5589,0.0101 c 6.657,0.007 10.1473,0.44032 11.4972,1.42738 1.4727,1.07685 2.2993,1.14482 3.4411,0.28296 0.8266,-0.62389 1.6619,-1.23325 1.8563,-1.35412 z"
             id="path895-8" />
        </g>
      </g>
    </g>
  </g>
</svg>
